Simulation
nRows=35
nColumns=15
endheader
time  TH_x TH_y TH_z SC_y  SC_z  SC_x  AC_y  AC_z  AC_x  GH_y  GH_z  GH_yy  EL_x  PS_y
1.9499999999999993  0.000000  0.000000  0.000000  -29.35204740309632  9.188950389784807  23.98886698281937  62.08816553707095  10.730525102074678  -1.0777776153114613  48.417177398255745  60.57528806528492  -44.316932459951566  22.339994352585567  0.000000
1.9889999999999992  0.000000  0.000000  0.000000  -29.16602797537246  8.881282083290921  23.546942957400894  61.89083041574121  10.495785604165748  -1.7678733139332947  48.88210184356049  59.65009966111188  -43.87380917375424  22.551918285228293  0.000000
2.027999999999999  0.000000  0.000000  0.000000  -28.9340261290928  8.52138852220525  23.057882095094705  61.682655567777196  10.228725052983847  -2.5218340397042978  49.38387664533868  58.62692279444596  -43.45680326690527  22.756912073757736  0.000000
2.0669999999999993  0.000000  0.000000  0.000000  -28.65959113766929  8.1130825329714  22.525084079321967  61.46508270398755  9.931067538118725  -3.325382003709237  49.91810328573965  57.51978519770424  -43.0687893105589  22.939732855216622  0.000000
2.1059999999999994  0.000000  0.000000  0.000000  -28.349204768522362  7.661949908864174  21.94981392840483  61.23586883066462  9.607167447346713  -4.164438901122666  50.46891413205189  56.34317138596149  -42.67983324097069  23.088591664244756  0.000000
2.144999999999999  0.000000  0.000000  0.000000  -28.01122417840646  7.174050443072437  21.331469088270715  60.99117310958719  9.263923447021606  -5.025590440257356  51.01221910482598  55.111509193700456  -42.24246968152207  23.196596266991616  0.000000
2.1839999999999993  0.000000  0.000000  0.000000  -27.6558730903044  6.654219939547427  20.666615176038384  60.72818668904798  8.909873106970362  -5.895606251078129  51.522139046591384  53.83915186764738  -41.71466070187002  23.26395021374162  0.000000
2.2229999999999994  0.000000  0.000000  0.000000  -27.29619860322674  6.1061907379614055  19.947930280253416  60.446890460030886  8.553622818290899  -6.759817906198128  51.975993089614654  52.54027040516098  -41.07408388183166  23.299772168768822  0.000000
2.261999999999999  0.000000  0.000000  0.000000  -26.949072191920216  5.53406424966858  19.163600730226833  60.15049507771097  8.202539424898731  -7.599341720426333  52.354688613610435  51.22763380757154  -40.315015372796736  23.32174424849405  0.000000
2.3009999999999993  0.000000  0.000000  0.000000  -26.633251354199043  4.944415957306316  18.29697739080986  59.844779623998875  7.862374919982485  -8.387756048396248  52.63670497035597  49.91009750306703  -39.43036429412243  23.352283231137587  0.000000
2.339999999999999  0.000000  0.000000  0.000000  -26.365336861582325  4.348054923118444  17.328776593369525  59.53627992505024  7.537523755409987  -9.090352278917674  52.790053960160094  48.58897479314568  -38.39231374228093  23.41324502351797  0.000000
2.378999999999999  0.000000  0.000000  0.000000  -26.156531533569115  3.7594145105216863  16.24142928000826  59.2304986670469  7.232811366416277  -9.669393289669689  52.76995302353189  47.256619903225626  -37.1469663963225  23.52250766799871  0.000000
2.4179999999999993  0.000000  0.000000  0.000000  -26.011161182049577  3.193128296782941  15.023918718293082  58.929618200338794  6.956204402648471  -10.093565228434588  52.52649738988227  45.89861773520253  -35.62796650006948  23.694010819812092  0.000000
2.456999999999999  0.000000  0.000000  0.000000  -25.928345343974957  2.6599442555153194  13.675332666143694  58.631419065180786  6.719186993976428  -10.346503596456449  52.01795292625694  44.50038447499214  -33.78016428369425  23.939281286852186  0.000000
2.495999999999999  0.000000  0.000000  0.000000  -25.905170176118585  2.16504451758099  12.205755805811565  58.33051142849314  6.533807579903857  -10.428845161796493  51.21968111475909  43.05374686054854  -31.577846686292816  24.266935113181294  0.000000
2.5349999999999993  0.000000  0.000000  0.000000  -25.938166893169836  1.7090732844112035  10.634859148520391  58.02124507795882  6.408587048000278  -10.355267211835542  50.125577528226195  41.5603858205592  -29.03112578434368  24.678686488444363  0.000000
2.573999999999999  0.000000  0.000000  0.000000  -26.023171762467378  1.2899977422476485  8.989828848748536  57.69989895827085  6.346046009685214  -10.149251696970804  48.747071141636546  40.03015054764426  -26.184141681707956  25.164149478523818  0.000000
2.612999999999999  0.000000  0.000000  0.000000  -26.154447099378807  0.9048362957453657  7.302967299868752  57.36551715737056  6.34247897194103  -9.83895196559588  47.11279761031776  38.47674724422574  -23.109977566991574  25.697754021780867  0.000000
2.6519999999999992  0.000000  0.000000  0.000000  -26.324699075721128  0.5506537339197337  5.609911923503859  57.0186756193665  6.38982611934488  -9.454950826804934  45.2695029418861  36.912008473136595  -19.90316749145084  26.240881635901193  0.000000
2.690999999999999  0.000000  0.000000  0.000000  -26.525969867353965  0.22551535166875888  3.9482200257587423  56.6594452908713  6.47854388194872  -9.029640262827995  43.28113336197107  35.3411994974269  -16.668890409425202  26.749336263707377  0.000000
2.729999999999999  0.000000  0.000000  0.000000  -26.750350257010375  -0.07048320963806823  2.3565241031380317  56.28553409773381  6.600173071464253  -8.596838658833201  41.224722200257744  33.76063047861228  -13.50986683389578  27.182746849478978  0.000000
2.768999999999999  0.000000  0.000000  0.000000  -26.990284311461366  -0.3348318635532426  0.8733816164814906  55.89236994593898  6.748301292381386  -8.19073788869006  39.18336221215931  32.15903476869576  -10.515496932714727  27.51182555547293  0.000000
2.807999999999999  0.000000  0.000000  0.000000  -27.238158505478594  -0.5637299770473808  -0.464415334636743  55.47503693513527  6.917366696983807  -7.84366918069805  37.237535253403244  30.52210048362426  -7.755719711447806  27.72050731660752  0.000000
2.846999999999999  0.000000  0.000000  0.000000  -27.485779811776396  -0.7536237427406823  -1.6236274003618594  55.03098924287876  7.100312050723953  -7.583073347579291  35.45523874490309  28.837542621408296  -5.277762992363061  27.804921775264592  0.000000
2.885999999999999  0.000000  0.000000  0.000000  -27.725348104499545  -0.9012607380146783  -2.576517355142042  54.562944884526566  7.285927269103629  -7.428899852678494  33.88190958249126  27.10009912956906  -3.1033274584740793  27.772081550880888  0.000000
2.924999999999999  0.000000  0.000000  0.000000  -27.950353184259708  -1.0043882428775468  -3.302779971003286  54.08124067258075  7.458082782010082  -7.3916467420979375  32.53031533812167  25.31461497288449  -1.2253482628695433  27.63865179513281  0.000000
2.963999999999999  0.000000  0.000000  0.000000  -28.155789255207385  -1.0636397096891648  -3.7913749027721897  53.60439819946588  7.596790023131407  -7.4712430782832495  31.372096287958264  23.497369711685263  0.39482877083373386  27.4294280034453  0.000000
3.002999999999999  0.000000  0.000000  0.000000  -28.338285824530008  -1.0834893364426261  -4.0419401128876995  53.158920327399215  7.681188754935794  -7.657547269048018  30.336826786293468  21.67470825089097  1.8237929779906858  27.17423377901188  0.000000
3.041999999999999  0.000000  0.000000  0.000000  -28.49623013630044  -1.071795235633943  -4.0669365368981225  52.775806728216324  7.694166855849537  -7.930983968837379  29.32682186225326  19.879953361468083  3.139870119369528  26.901927945856535  0.000000
3.080999999999999  0.000000  0.000000  0.000000  -28.630456694707267  -1.0373498014152478  -3.8921202645876667  52.48395541286035  7.625508765100429  -8.263712732315625  28.252995108274604  18.149733764634078  4.39996577383871  26.634925811699365  0.000000
3.1199999999999988  0.000000  0.000000  0.000000  -28.744422819542446  -0.9877677609531572  -3.5522624925684014  52.29951118718657  7.473646426129671  -8.625237068960592  27.08605223549553  16.51959642522404  5.5971982261891515  26.38700880051558  0.000000
3.158999999999999  0.000000  0.000000  0.000000  -28.843527501809945  -0.9286549937832093  -3.0860260178845045  52.21802264276146  7.247685763489109  -8.989448538262577  25.892634092495015  15.018545927209685  6.632998967334203  26.16477178312434  0.000000
3.197999999999999  0.000000  0.000000  0.000000  -28.93389651240322  -0.8633430126507181  -2.5331690064264354  52.21713246754102  6.967847513201095  -9.33924268079722  24.824778092343372  13.665701976743524  7.333089263998268  25.972198470802542  0.000000
3.2369999999999988  0.000000  0.000000  0.000000  -29.019337007113275  -0.7937682440596772  -1.9325789549589296  52.267991753684235  6.6616565415245725  -9.668533039690086  24.073995753119007  12.47146006621731  7.496121030561024  25.814208763985118  0.000000
3.275999999999999  0.000000  0.000000  0.000000  -29.09929576933218  -0.7225022045357703  -1.3189354051306312  52.34614284644369  6.355184336163328  -9.97635489544549  23.799332410429788  11.440954824597389  6.966594013211917  25.696589810549945  0.000000
